<svg width="24.000000" height="24.000000" viewBox="0 0 24 24" fill="none" xmlns="http://www.w3.org/2000/svg" xmlns:xlink="http://www.w3.org/1999/xlink">
	<desc>
			Created with Pixso.
	</desc>
	<defs>
		<clipPath id="clip23_511">
			<rect id="united kingdom" width="24.000000" height="24.000000" fill="white" fill-opacity="0"/>
		</clipPath>
	</defs>
	<rect id="united kingdom" width="24.000000" height="24.000000" fill="#FFFFFF" fill-opacity="0"/>
	<g clip-path="url(#clip23_511)">
		<path id="Vector" d="M24 12C24 18.6274 18.6274 24 12 24C5.37256 24 0 18.6274 0 12C0 5.37256 5.37256 0 12 0C18.6274 0 24 5.37256 24 12Z" fill="#F0F0F0" fill-opacity="1.000000" fill-rule="evenodd"/>
		<path id="Vector" d="M2.48047 4.69434C1.53784 5.9209 0.827148 7.33447 0.41333 8.86963L6.65601 8.86963L2.48047 4.69434Z" fill="#0052B4" fill-opacity="1.000000" fill-rule="nonzero"/>
		<path id="Vector" d="M23.5867 8.86963C23.1729 7.33447 22.4619 5.9209 21.5193 4.69434L17.344 8.86963L23.5867 8.86963Z" fill="#0052B4" fill-opacity="1.000000" fill-rule="nonzero"/>
		<path id="Vector" d="M0.41333 15.1304C0.827148 16.666 1.53809 18.0796 2.48047 19.3057L6.65601 15.1304L0.41333 15.1304Z" fill="#0052B4" fill-opacity="1.000000" fill-rule="nonzero"/>
		<path id="Vector" d="M19.3059 2.48096C18.0793 1.53809 16.666 0.827637 15.1304 0.413574L15.1304 6.65625L19.3059 2.48096Z" fill="#0052B4" fill-opacity="1.000000" fill-rule="nonzero"/>
		<path id="Vector" d="M4.69434 21.519C5.92065 22.4619 7.33423 23.1724 8.86987 23.5864L8.86987 17.3438L4.69434 21.519Z" fill="#0052B4" fill-opacity="1.000000" fill-rule="nonzero"/>
		<path id="Vector" d="M8.86963 0.413574C7.33423 0.827637 5.92065 1.53809 4.69434 2.48096L8.86963 6.65625L8.86963 0.413574Z" fill="#0052B4" fill-opacity="1.000000" fill-rule="nonzero"/>
		<path id="Vector" d="M15.1304 23.5864C16.666 23.1724 18.0793 22.4619 19.3057 21.519L15.1304 17.3438L15.1304 23.5864Z" fill="#0052B4" fill-opacity="1.000000" fill-rule="nonzero"/>
		<path id="Vector" d="M17.344 15.1304L21.5193 19.3057C22.4619 18.0796 23.1729 16.666 23.5867 15.1304L17.344 15.1304Z" fill="#0052B4" fill-opacity="1.000000" fill-rule="nonzero"/>
		<path id="Vector" d="M23.8984 10.4346L13.5652 10.4346L13.5652 10.4346L13.5652 0.101562C13.053 0.034668 12.5305 0 12 0C11.4695 0 10.947 0.034668 10.4348 0.101562L10.4348 10.4346L10.4348 10.4346L0.101562 10.4346C0.0349121 10.9473 0 11.4697 0 12C0 12.5308 0.0349121 13.0527 0.101562 13.5654L10.4348 13.5654L10.4348 13.5654L10.4348 23.8984C10.947 23.9653 11.4695 24 12 24C12.5305 24 13.053 23.9653 13.5652 23.8984L13.5652 13.5654L13.5652 13.5654L23.8984 13.5654C23.9651 13.0527 24 12.5308 24 12C24 11.4697 23.9651 10.9473 23.8984 10.4346Z" fill="#D80027" fill-opacity="1.000000" fill-rule="nonzero"/>
		<path id="Vector" d="M15.1304 15.1304L20.4851 20.4854C20.7314 20.2393 20.9663 19.9814 21.1907 19.7148L16.6062 15.1304L15.1304 15.1304L15.1304 15.1304Z" fill="#D80027" fill-opacity="1.000000" fill-rule="nonzero"/>
		<path id="Vector" d="M8.86963 15.1304L8.86938 15.1304L3.51465 20.4854C3.76074 20.7314 4.01831 20.9663 4.28516 21.1904L8.86963 16.606L8.86963 15.1304Z" fill="#D80027" fill-opacity="1.000000" fill-rule="nonzero"/>
		<path id="Vector" d="M8.86963 8.86963L8.86963 8.86963L3.51465 3.51465C3.26831 3.76074 3.03345 4.01807 2.80933 4.28516L7.3938 8.86963L8.86963 8.86963L8.86963 8.86963Z" fill="#D80027" fill-opacity="1.000000" fill-rule="nonzero"/>
		<path id="Vector" d="M15.1304 8.86963L20.4854 3.51514C20.239 3.26855 19.9817 3.03369 19.7148 2.80957L15.1304 7.39404L15.1304 8.86963Z" fill="#D80027" fill-opacity="1.000000" fill-rule="nonzero"/>
	</g>
</svg>
